<svg width="903" height="70" viewBox="0 0 903 70" fill="none" xmlns="http://www.w3.org/2000/svg">
<g clip-path="url(#clip0_3_52)">
<path d="M12.91 3.6499V65.9499H0V3.6499H12.91Z" fill="#26B7BC" fill-opacity="0.2"/>
<path d="M87.4 3.65003V69.07L43.08 27.32V65.95H30.8V0.530029L75.12 42.27V3.65003H87.4Z" fill="#26B7BC" fill-opacity="0.2"/>
<path d="M117.66 3.6499V65.9499H105.38V3.6499H117.66ZM113.56 3.6499H141.42V14.7699H113.56V3.6499ZM113.56 28.7499H140.53V39.3399H113.56V28.7499Z" fill="#26B7BC" fill-opacity="0.2"/>
<path d="M170.43 3.6499V65.9499H157.52V3.6499H170.43Z" fill="#26B7BC" fill-opacity="0.2"/>
<path d="M244.92 3.65003V69.07L200.6 27.33V65.96H188.32V0.530029L232.64 42.27V3.65003H244.92Z" fill="#26B7BC" fill-opacity="0.2"/>
<path d="M275.81 3.6499V65.9499H262.9V3.6499H275.81Z" fill="#26B7BC" fill-opacity="0.2"/>
<path d="M287.47 3.6499H333.75V15.1299H316.93V65.9499H304.2V15.1299H287.47V3.6499Z" fill="#26B7BC" fill-opacity="0.2"/>
<path d="M357.69 3.6499V65.9499H345.41V3.6499H357.69ZM353.59 3.6499H385.01V14.4199H353.59V3.6499ZM353.59 27.5899H383.23V38.1799H353.59V27.5899ZM353.59 55.1799H385.01V65.9499H353.59V55.1799Z" fill="#26B7BC" fill-opacity="0.2"/>
<path d="M432.09 21.7599C433.75 17.8099 436.09 14.3899 439.12 11.4799C442.15 8.5699 445.66 6.3299 449.67 4.7599C453.67 3.1899 458.02 2.3999 462.71 2.3999C467.4 2.3999 471.82 3.1899 475.79 4.7599C479.76 6.3299 483.22 8.5699 486.16 11.4799C489.1 14.3899 491.38 17.8099 493.01 21.7599C494.64 25.7099 495.46 30.0499 495.46 34.7999C495.46 39.5499 494.66 43.8299 493.06 47.8399C491.46 51.8399 489.19 55.3299 486.25 58.2999C483.31 61.2699 479.86 63.5699 475.88 65.1999C471.9 66.8299 467.51 67.6499 462.71 67.6499C457.91 67.6499 453.57 66.8299 449.54 65.1999C445.5 63.5699 441.99 61.2699 438.99 58.2999C435.99 55.3299 433.68 51.8499 432.05 47.8399C430.42 43.8399 429.6 39.4899 429.6 34.7999C429.6 30.1099 430.43 25.7099 432.09 21.7599ZM445.75 45.9199C447.56 49.1199 450.01 51.6199 453.09 53.3999C456.17 55.1799 459.62 56.0699 463.41 56.0699C467.2 56.0699 470.68 55.2199 473.64 53.5299C476.61 51.8399 478.92 49.4799 480.58 46.4499C482.24 43.4199 483.07 39.9199 483.07 35.9499C483.07 31.9799 482.24 28.2699 480.58 24.9999C478.92 21.7399 476.56 19.1299 473.5 17.1699C470.44 15.2099 466.84 14.2299 462.69 14.2299C458.83 14.2299 455.44 15.1199 452.5 16.8999C449.56 18.6799 447.25 21.1099 445.56 24.1999C443.87 27.2899 443.02 30.8199 443.02 34.7899C443.02 38.9999 443.92 42.7099 445.73 45.9099L445.75 45.9199ZM472.58 39.2499L501.5 66.7499H487.35L458.78 39.2499H472.57H472.58Z" fill="#26B7BC" fill-opacity="0.2"/>
<path d="M524.74 3.6499V44.6799C524.74 48.2399 525.67 51.0999 527.54 53.2699C529.41 55.4399 532.18 56.5199 535.86 56.5199C539.54 56.5199 542.31 55.4399 544.18 53.2699C546.05 51.0999 546.98 48.2399 546.98 44.6799V3.6499H559.71V45.4799C559.71 49.1599 559.12 52.3899 557.93 55.1799C556.74 57.9699 555.07 60.3099 552.9 62.2099C550.73 64.1099 548.2 65.5499 545.29 66.5299C542.38 67.5099 539.24 67.9999 535.86 67.9999C532.48 67.9999 529.24 67.5099 526.34 66.5299C523.43 65.5499 520.91 64.1099 518.77 62.2099C516.63 60.3099 514.97 57.9699 513.79 55.1799C512.6 52.3899 512.01 49.1599 512.01 45.4799V3.6499H524.74Z" fill="#26B7BC" fill-opacity="0.2"/>
<path d="M592.73 45.3L593 48.15L584.81 65.95H570.48L602.08 0L633.68 65.95H619.26L611.25 48.68L611.43 45.48L602.08 23.85L592.74 45.3H592.73ZM587.3 41.74H617.2L618.71 51.8H585.78L587.29 41.74H587.3Z" fill="#26B7BC" fill-opacity="0.2"/>
<path d="M701.49 3.65003V69.07L657.17 27.33V65.96H644.89V0.530029L689.21 42.27V3.65003H701.49Z" fill="#26B7BC" fill-opacity="0.2"/>
<path d="M713.24 3.6499H759.52V15.1299H742.7V65.9499H729.97V15.1299H713.24V3.6499Z" fill="#26B7BC" fill-opacity="0.2"/>
<path d="M783.46 3.6499V44.6799C783.46 48.2399 784.39 51.0999 786.26 53.2699C788.13 55.4399 790.9 56.5199 794.58 56.5199C798.26 56.5199 801.03 55.4399 802.9 53.2699C804.77 51.0999 805.7 48.2399 805.7 44.6799V3.6499H818.43V45.4799C818.43 49.1599 817.84 52.3899 816.65 55.1799C815.46 57.9699 813.79 60.3099 811.62 62.2099C809.45 64.1099 806.92 65.5499 804.01 66.5299C801.1 67.5099 797.96 67.9999 794.58 67.9999C791.2 67.9999 787.96 67.5099 785.06 66.5299C782.15 65.5499 779.63 64.1099 777.49 62.2099C775.35 60.3099 773.69 57.9699 772.51 55.1799C771.32 52.3899 770.73 49.1599 770.73 45.4799V3.6499H783.46Z" fill="#26B7BC" fill-opacity="0.2"/>
<path d="M845.58 65.95H832.32L841.57 0.530029L867.65 40.76L893.73 0.530029L902.99 65.95H889.73L885.72 30.97L867.65 60.16L849.58 30.97L845.58 65.95Z" fill="#26B7BC" fill-opacity="0.2"/>
</g>
<defs>
<clipPath id="clip0_3_52">
<rect width="902.98" height="69.06" fill="white"/>
</clipPath>
</defs>
</svg>
