<svg width="36" height="32" viewBox="0 0 36 32" fill="none" xmlns="http://www.w3.org/2000/svg">
<path d="M6.19888e-06 14.1992H3.54784V17.756H6.19888e-06V14.1992Z" fill="#26B7BC"/>
<path d="M3.54433 10.6602H7.09218V14.2169H3.54433V10.6602Z" fill="#26B7BC"/>
<path d="M7.08513 7.0957H10.633V10.6525H7.08513V7.0957Z" fill="#26B7BC"/>
<path d="M10.633 3.55664H14.1808V7.1134H10.633V3.55664Z" fill="#26B7BC"/>
<path d="M14.1808 0H17.7286V3.55675H14.1808V0Z" fill="#26B7BC"/>
<path d="M14.1703 28.4434H17.7181V32.0001H14.1703V28.4434Z" fill="#26B7BC"/>
<path d="M10.64 24.8862H14.1879V28.443H10.64V24.8862Z" fill="#26B7BC"/>
<path d="M7.08513 21.3408H10.633V24.8976H7.08513V21.3408Z" fill="#26B7BC"/>
<path d="M3.55486 17.7837H7.10269V21.3404H3.55486V17.7837Z" fill="#26B7BC"/>
<path d="M7.08161 14.2271H35.8402V17.7838H7.08161V14.2271Z" fill="#26B7BC"/>
</svg>
