<?xml version="1.0" encoding="UTF-8"?>
<svg id="_圖層_2" data-name="圖層 2" xmlns="http://www.w3.org/2000/svg" viewBox="0 0 1920 1080">
  <defs>
    <style>
      .cls-1 {
        fill: #26b7bc;
        opacity: .45;
        animation: anim 1s linear infinite;
      }

      .cls-2 {
        fill: #fff;
        opacity: .7;
        animation: anim2 1s linear infinite;
      }

      @keyframes anim {
          to{fill: #26b7bc;}
          from{fill: #fff;}
      }

      @keyframes anim2 {
          to{fill: #fff;}
          from{fill: #26b7bc;}
      }
    </style>
  </defs>
  <g id="_圖層_1-2" data-name="圖層 1">
    <g>
      <g>
        <rect class="cls-2" x="1590.22" y="731.08" width="10.1" height="10.1"/>
        <rect class="cls-2" x="85.45" y="388.88" width="10.1" height="10.1"/>
        <rect class="cls-2" x="17.09" y="406.48" width="10.1" height="10.1"/>
        <rect class="cls-2" x="1207.82" y="171.04" width="10.1" height="10.1"/>
        <rect class="cls-2" x="17.61" y="85.45" width="10.1" height="10.1"/>
        <rect class="cls-2" x="35.22" y="51.27" width="10.1" height="10.1"/>
        <rect class="cls-2" x="1183.28" y="850.59" width="10.1" height="10.1"/>
        <rect class="cls-2" x="1183.28" y="762.54" width="10.1" height="10.1"/>
        <rect class="cls-2" x="1234.55" y="797.76" width="10.1" height="10.1"/>
        <rect class="cls-2" x="1251.65" y="832.98" width="10.1" height="10.1"/>
        <rect class="cls-2" x="1468.18" y="901.75" width="10.1" height="10.1"/>
        <rect class="cls-2" x="1431.93" y="884.65" width="10.1" height="10.1"/>
        <rect class="cls-2" x="1414.84" y="779" width="10.1" height="10.1"/>
        <rect class="cls-2" x="1329.38" y="849.44" width="10.1" height="10.1"/>
        <rect class="cls-2" x="1.04" y="1044.16" width="10.1" height="10.1"/>
        <rect class="cls-2" x="36.25" y="992.88" width="10.1" height="10.1"/>
        <rect class="cls-2" x="1892.81" y="659.4" width="10.1" height="10.1"/>
        <rect class="cls-2" x="1858.63" y="694.62" width="10.1" height="10.1"/>
        <rect class="cls-2" x="1790.26" y="800.27" width="10.1" height="10.1"/>
        <rect class="cls-2" x="1014.77" y="17.61" width="10.1" height="10.1"/>
        <rect class="cls-2" x="1066.04" y="35.22" width="10.1" height="10.1"/>
        <rect class="cls-2" x="929.31" y="70.44" width="10.1" height="10.1"/>
        <rect class="cls-2" x="876.54" y="893.81" width="10.1" height="10.1"/>
        <rect class="cls-2" x="825.26" y="911.42" width="10.1" height="10.1"/>
        <rect class="cls-2" x="910.72" y="999.47" width="10.1" height="10.1"/>
        <rect class="cls-2" x="979.08" y="911.42" width="10.1" height="10.1"/>
        <rect class="cls-2" x="1875.72" y="830.39" width="10.1" height="10.1"/>
        <rect class="cls-2" x="758.96" y="452.32" width="10.1" height="10.1"/>
        <rect class="cls-2" x="35.22" y="828.97" width="10.1" height="10.1"/>
        <rect class="cls-2" x="189.99" y="828.45" width="10.1" height="10.1"/>
      </g>
      <g>
        <rect class="cls-1" x="1658.59" y="731.08" width="10.1" height="10.1"/>
        <rect class="cls-1" x="1658.59" y="819.13" width="10.1" height="10.1"/>
        <rect class="cls-1" x="1641.5" y="766.3" width="10.1" height="10.1"/>
        <rect class="cls-1" x="1624.41" y="713.47" width="10.1" height="10.1"/>
        <rect class="cls-1" x="1624.41" y="783.91" width="10.1" height="10.1"/>
        <rect class="cls-1" x="1607.31" y="883.22" width="10.1" height="10.1"/>
        <rect class="cls-1" x="1590.22" y="766.3" width="10.1" height="10.1"/>
        <rect class="cls-1" x="119.64" y="406.48" width="10.1" height="10.1"/>
        <rect class="cls-1" x="102.55" y="441.7" width="10.1" height="10.1"/>
        <rect class="cls-1" x="102.55" y="494.53" width="10.1" height="10.1"/>
        <rect class="cls-1" x="85.45" y="459.31" width="10.1" height="10.1"/>
        <rect class="cls-1" x="68.36" y="476.92" width="10.1" height="10.1"/>
        <rect class="cls-1" x="51.27" y="406.48" width="10.1" height="10.1"/>
        <rect class="cls-1" x="51.27" y="441.7" width="10.1" height="10.1"/>
        <rect class="cls-1" x="17.09" y="476.92" width="10.1" height="10.1"/>
        <rect class="cls-1" y="494.53" width="10.1" height="10.1"/>
        <rect class="cls-1" x="1242" y="171.04" width="10.1" height="10.1"/>
        <rect class="cls-1" x="1224.91" y="153.43" width="10.1" height="10.1"/>
        <rect class="cls-1" x="1207.82" y="153.43" width="10.1" height="10.1"/>
        <rect class="cls-1" x="1190.73" y="135.82" width="10.1" height="10.1"/>
        <rect class="cls-1" x="1173.64" y="153.43" width="10.1" height="10.1"/>
        <rect class="cls-1" x="1139.45" y="153.43" width="10.1" height="10.1"/>
        <rect class="cls-1" y="102.55" width="10.1" height="10.1"/>
        <rect class="cls-1" x="17.61" y="68.36" width="10.1" height="10.1"/>
        <rect class="cls-1" y="68.36" width="10.1" height="10.1"/>
        <rect class="cls-1" x="17.61" y="34.18" width="10.1" height="10.1"/>
        <rect class="cls-1" x="17.61" width="10.1" height="10.1"/>
        <rect class="cls-1" x="1166.19" y="850.59" width="10.1" height="10.1"/>
        <rect class="cls-1" x="1109.92" y="780.15" width="10.1" height="10.1"/>
        <rect class="cls-1" x="1200.37" y="797.76" width="10.1" height="10.1"/>
        <rect class="cls-1" x="1217.46" y="850.59" width="10.1" height="10.1"/>
        <rect class="cls-1" x="1217.46" y="780.15" width="10.1" height="10.1"/>
        <rect class="cls-1" x="1234.55" y="815.37" width="10.1" height="10.1"/>
        <rect class="cls-1" x="1268.74" y="850.59" width="10.1" height="10.1"/>
        <rect class="cls-1" x="1285.83" y="850.59" width="10.1" height="10.1"/>
        <rect class="cls-1" x="1397.75" y="935.93" width="10.1" height="10.1"/>
        <rect class="cls-1" x="1450.57" y="918.84" width="10.1" height="10.1"/>
        <rect class="cls-1" x="1468.18" y="884.65" width="10.1" height="10.1"/>
        <rect class="cls-1" x="1449.02" y="831.83" width="10.1" height="10.1"/>
        <rect class="cls-1" x="1397.75" y="831.83" width="10.1" height="10.1"/>
        <rect class="cls-1" x="1397.75" y="867.05" width="10.1" height="10.1"/>
        <rect class="cls-1" x="1363.56" y="796.61" width="10.1" height="10.1"/>
        <rect class="cls-1" x="1363.56" y="867.05" width="10.1" height="10.1"/>
        <rect class="cls-1" x="1346.47" y="884.65" width="10.1" height="10.1"/>
        <rect class="cls-1" x="1329.38" y="814.22" width="10.1" height="10.1"/>
        <rect class="cls-1" x="36.25" y="1027.07" width="10.1" height="10.1"/>
        <rect class="cls-1" x="18.64" y="1027.07" width="10.1" height="10.1"/>
        <rect class="cls-1" x="1.04" y="1027.07" width="10.1" height="10.1"/>
        <rect class="cls-1" x="36.25" y="1009.97" width="10.1" height="10.1"/>
        <rect class="cls-1" x="18.64" y="1009.97" width="10.1" height="10.1"/>
        <rect class="cls-1" x="17.09" y="940.06" width="10.1" height="10.1"/>
        <rect class="cls-1" y="992.88" width="10.1" height="10.1"/>
        <rect class="cls-1" x="1909.9" y="677.01" width="10.1" height="10.1"/>
        <rect class="cls-1" x="1824.45" y="659.4" width="10.1" height="10.1"/>
        <rect class="cls-1" x="1807.36" y="712.23" width="10.1" height="10.1"/>
        <rect class="cls-1" x="1790.26" y="677.01" width="10.1" height="10.1"/>
        <rect class="cls-1" x="1841.54" y="765.05" width="10.1" height="10.1"/>
        <rect class="cls-1" x="1824.45" y="817.88" width="10.1" height="10.1"/>
        <rect class="cls-1" x="1790.26" y="765.05" width="10.1" height="10.1"/>
        <rect class="cls-1" x="1756.08" y="729.84" width="10.1" height="10.1"/>
        <rect class="cls-1" x="1756.08" y="800.27" width="10.1" height="10.1"/>
        <rect class="cls-1" x="1738.99" y="817.88" width="10.1" height="10.1"/>
        <rect class="cls-1" x="1721.9" y="782.66" width="10.1" height="10.1"/>
        <rect class="cls-1" x="1031.86" y="17.61" width="10.1" height="10.1"/>
        <rect class="cls-1" x="1048.95" y="0" width="10.1" height="10.1"/>
        <rect class="cls-1" x="997.68" y="52.83" width="10.1" height="10.1"/>
        <rect class="cls-1" x="1031.86" y="52.83" width="10.1" height="10.1"/>
        <rect class="cls-1" x="1083.13" y="0" width="10.1" height="10.1"/>
        <rect class="cls-1" x="1100.22" y="0" width="10.1" height="10.1"/>
        <rect class="cls-1" x="1100.22" y="17.61" width="10.1" height="10.1"/>
        <rect class="cls-1" x="1134.4" y="0" width="10.1" height="10.1"/>
        <rect class="cls-1" x="860.95" y="0" width="10.1" height="10.1"/>
        <rect class="cls-1" x="912.22" y="17.61" width="10.1" height="10.1"/>
        <rect class="cls-1" x="878.04" y="70.44" width="10.1" height="10.1"/>
        <rect class="cls-1" x="895.13" y="123.26" width="10.1" height="10.1"/>
        <rect class="cls-1" x="929.31" y="105.65" width="10.1" height="10.1"/>
        <rect class="cls-1" x="963.5" y="35.22" width="10.1" height="10.1"/>
        <rect class="cls-1" x="963.5" y="105.65" width="10.1" height="10.1"/>
        <rect class="cls-1" x="980.59" y="123.26" width="10.1" height="10.1"/>
        <rect class="cls-1" x="997.68" y="88.04" width="10.1" height="10.1"/>
        <rect class="cls-1" x="876.54" y="911.42" width="10.1" height="10.1"/>
        <rect class="cls-1" x="876.54" y="981.86" width="10.1" height="10.1"/>
        <rect class="cls-1" x="842.36" y="893.81" width="10.1" height="10.1"/>
        <rect class="cls-1" x="842.36" y="964.25" width="10.1" height="10.1"/>
        <rect class="cls-1" x="825.26" y="876.2" width="10.1" height="10.1"/>
        <rect class="cls-1" x="825.26" y="946.64" width="10.1" height="10.1"/>
        <rect class="cls-1" x="808.17" y="893.81" width="10.1" height="10.1"/>
        <rect class="cls-1" x="773.99" y="876.2" width="10.1" height="10.1"/>
        <rect class="cls-1" x="773.99" y="964.25" width="10.1" height="10.1"/>
        <rect class="cls-1" x="756.9" y="893.81" width="10.1" height="10.1"/>
        <rect class="cls-1" x="739.81" y="929.03" width="10.1" height="10.1"/>
        <rect class="cls-1" x="1064.54" y="929.03" width="10.1" height="10.1"/>
        <rect class="cls-1" x="1047.45" y="911.42" width="10.1" height="10.1"/>
        <rect class="cls-1" x="1013.27" y="946.64" width="10.1" height="10.1"/>
        <rect class="cls-1" x="944.9" y="929.03" width="10.1" height="10.1"/>
        <rect class="cls-1" x="979.08" y="1069.9" width="10.1" height="10.1"/>
        <rect class="cls-1" x="944.9" y="1052.29" width="10.1" height="10.1"/>
        <rect class="cls-1" x="910.72" y="981.86" width="10.1" height="10.1"/>
        <rect class="cls-1" x="910.72" y="1052.29" width="10.1" height="10.1"/>
        <rect class="cls-1" x="893.63" y="1069.9" width="10.1" height="10.1"/>
        <rect class="cls-1" x="1909.9" y="883.22" width="10.1" height="10.1"/>
        <rect class="cls-1" x="1892.81" y="883.22" width="10.1" height="10.1"/>
        <rect class="cls-1" x="1892.81" y="918.43" width="10.1" height="10.1"/>
        <rect class="cls-1" x="1875.72" y="848" width="10.1" height="10.1"/>
        <rect class="cls-1" x="1858.63" y="883.22" width="10.1" height="10.1"/>
        <rect class="cls-1" x="758.96" y="401.05" width="10.1" height="10.1"/>
        <rect class="cls-1" x="758.96" y="418.14" width="10.1" height="10.1"/>
        <rect class="cls-1" x="794.18" y="418.14" width="10.1" height="10.1"/>
        <rect class="cls-1" x="706.13" y="435.23" width="10.1" height="10.1"/>
        <rect class="cls-1" x="723.74" y="435.23" width="10.1" height="10.1"/>
        <rect class="cls-1" x="35.22" y="880.24" width="10.1" height="10.1"/>
        <rect class="cls-1" y="863.15" width="10.1" height="10.1"/>
        <rect class="cls-1" x="88.04" y="846.06" width="10.1" height="10.1"/>
        <rect class="cls-1" x="70.44" y="846.06" width="10.1" height="10.1"/>
        <rect class="cls-1" x="155.8" y="828.45" width="10.1" height="10.1"/>
        <rect class="cls-1" x="138.71" y="846.06" width="10.1" height="10.1"/>
        <rect class="cls-1" x="121.62" y="810.84" width="10.1" height="10.1"/>
        <rect class="cls-1" x="125.2" y="646.79" width="10.1" height="10.1"/>
        <rect class="cls-1" x="91.02" y="593.97" width="10.1" height="10.1"/>
        <rect class="cls-1" x="73.93" y="646.79" width="10.1" height="10.1"/>
        <rect class="cls-1" x="39.75" y="611.58" width="10.1" height="10.1"/>
        <rect class="cls-1" x="5.57" y="629.18" width="10.1" height="10.1"/>
        <rect class="cls-1" x="5.57" y="664.4" width="10.1" height="10.1"/>
      </g>
    </g>
  </g>
</svg>